<mxfile host="Electron" modified="2024-03-31T05:07:05.890Z" agent="Mozilla/5.0 (Windows NT 10.0; Win64; x64) AppleWebKit/537.36 (KHTML, like Gecko) draw.io/24.1.0 Chrome/120.0.6099.109 Electron/28.1.0 Safari/537.36" etag="OlYUNDi_pfELneeiyjOS" version="24.1.0" type="device">
  <diagram name="Página-1" id="f6u8xVm8nJmj6Ohz1x2K">
    <mxGraphModel dx="1420" dy="830" grid="1" gridSize="10" guides="1" tooltips="1" connect="1" arrows="1" fold="1" page="1" pageScale="1" pageWidth="827" pageHeight="1169" background="#CCE5FF" math="0" shadow="0">
      <root>
        <mxCell id="0" />
        <mxCell id="1" parent="0" />
        <mxCell id="_Unlom2Pnuw2UOCp4IdP-1" value="&lt;p style=&quot;line-height: 90%;&quot;&gt;&lt;font style=&quot;font-size: 16px;&quot; color=&quot;#000000&quot; face=&quot;Comic Sans MS&quot;&gt;&lt;b&gt;17 Hacer un programa para ingresar por teclado cuatro números. Si los valores que&lt;br&gt;&lt;br&gt;se ingresaran están ordenados en forma creciente, emitir el mensaje “Conjunto&lt;br&gt;&lt;br&gt;Ordenado”, caso contrario emitir el mensaje: “Conjunto Desordenado”.&lt;br&gt;&lt;br&gt;Ejemplo A: si los números que se ingresan son 8, 10, 12 y 14, entonces están&lt;br&gt;&lt;br&gt;ordenados.&lt;br&gt;&lt;br&gt;Ejemplo B: si los números que se ingresan son 8, 12, 12 y 14, entonces están&lt;br&gt;&lt;br&gt;ordenados.&lt;br&gt;&lt;br&gt;Ejemplo C: si los números que se ingresan son 10, 8, 12 y 14, entonces están&lt;br&gt;&lt;br&gt;desordenados.&lt;/b&gt;&lt;/font&gt;&lt;/p&gt;" style="text;whiteSpace=wrap;html=1;fontFamily=Architects Daughter;fontSource=https%3A%2F%2Ffonts.googleapis.com%2Fcss%3Ffamily%3DArchitects%2BDaughter;" vertex="1" parent="1">
          <mxGeometry x="50" y="10" width="670" height="270" as="geometry" />
        </mxCell>
        <mxCell id="_Unlom2Pnuw2UOCp4IdP-39" value="" style="group" vertex="1" connectable="0" parent="1">
          <mxGeometry x="50" y="310" width="570" height="490" as="geometry" />
        </mxCell>
        <mxCell id="_Unlom2Pnuw2UOCp4IdP-12" value="" style="group;aspect=fixed;" vertex="1" connectable="0" parent="_Unlom2Pnuw2UOCp4IdP-39">
          <mxGeometry x="260" width="40" height="40" as="geometry" />
        </mxCell>
        <mxCell id="_Unlom2Pnuw2UOCp4IdP-2" value="" style="strokeWidth=2;html=1;shape=mxgraph.flowchart.start_2;whiteSpace=wrap;rounded=0;labelBackgroundColor=none;strokeColor=#000000;align=center;verticalAlign=middle;fontFamily=Helvetica;fontSize=12;fontColor=default;fillColor=#d5e8d4;aspect=fixed;" vertex="1" parent="_Unlom2Pnuw2UOCp4IdP-12">
          <mxGeometry width="40" height="40" as="geometry" />
        </mxCell>
        <mxCell id="_Unlom2Pnuw2UOCp4IdP-10" value="&lt;b&gt;&lt;font face=&quot;Comic Sans MS&quot; color=&quot;#000000&quot; style=&quot;font-size: 17px;&quot;&gt;I&lt;/font&gt;&lt;/b&gt;" style="text;strokeColor=none;align=center;fillColor=none;html=1;verticalAlign=middle;whiteSpace=wrap;rounded=0;fontFamily=Architects Daughter;fontSource=https%3A%2F%2Ffonts.googleapis.com%2Fcss%3Ffamily%3DArchitects%2BDaughter;aspect=fixed;" vertex="1" parent="_Unlom2Pnuw2UOCp4IdP-12">
          <mxGeometry y="5" width="40" height="30" as="geometry" />
        </mxCell>
        <mxCell id="_Unlom2Pnuw2UOCp4IdP-13" value="" style="group;aspect=fixed;" vertex="1" connectable="0" parent="_Unlom2Pnuw2UOCp4IdP-39">
          <mxGeometry x="260" y="450" width="40" height="40" as="geometry" />
        </mxCell>
        <mxCell id="_Unlom2Pnuw2UOCp4IdP-3" value="" style="strokeWidth=2;html=1;shape=mxgraph.flowchart.start_2;whiteSpace=wrap;rounded=0;labelBackgroundColor=none;strokeColor=#000000;align=center;verticalAlign=middle;fontFamily=Helvetica;fontSize=12;fontColor=default;fillColor=#d5e8d4;aspect=fixed;" vertex="1" parent="_Unlom2Pnuw2UOCp4IdP-13">
          <mxGeometry width="40" height="40" as="geometry" />
        </mxCell>
        <mxCell id="_Unlom2Pnuw2UOCp4IdP-11" value="&lt;b&gt;&lt;font face=&quot;Comic Sans MS&quot; color=&quot;#000000&quot; style=&quot;font-size: 17px;&quot;&gt;F&lt;/font&gt;&lt;/b&gt;" style="text;strokeColor=none;align=center;fillColor=none;html=1;verticalAlign=middle;whiteSpace=wrap;rounded=0;fontFamily=Architects Daughter;fontSource=https://fonts.googleapis.com/css?family=Architects+Daughter;aspect=fixed;" vertex="1" parent="_Unlom2Pnuw2UOCp4IdP-13">
          <mxGeometry y="5" width="40" height="30" as="geometry" />
        </mxCell>
        <mxCell id="_Unlom2Pnuw2UOCp4IdP-16" value="" style="group;aspect=fixed;" vertex="1" connectable="0" parent="_Unlom2Pnuw2UOCp4IdP-39">
          <mxGeometry x="170" y="70" width="220" height="40" as="geometry" />
        </mxCell>
        <mxCell id="_Unlom2Pnuw2UOCp4IdP-4" value="" style="shape=trapezoid;perimeter=trapezoidPerimeter;whiteSpace=wrap;html=1;fixedSize=1;rounded=0;labelBackgroundColor=none;strokeColor=#121211;strokeWidth=2;align=center;verticalAlign=middle;fontFamily=Helvetica;fontSize=12;fontColor=default;fillColor=#d5e8d4;direction=west;container=0;aspect=fixed;" vertex="1" parent="_Unlom2Pnuw2UOCp4IdP-16">
          <mxGeometry width="220" height="40" as="geometry">
            <mxRectangle x="-1020" y="-650" width="50" height="40" as="alternateBounds" />
          </mxGeometry>
        </mxCell>
        <mxCell id="_Unlom2Pnuw2UOCp4IdP-14" value="&lt;font face=&quot;Comic Sans MS&quot; color=&quot;#000000&quot;&gt;&lt;span style=&quot;font-size: 14px;&quot;&gt;&lt;b&gt;num1, num2, num3, num4&lt;/b&gt;&lt;/span&gt;&lt;/font&gt;" style="text;strokeColor=none;align=center;fillColor=none;html=1;verticalAlign=middle;whiteSpace=wrap;rounded=0;fontFamily=Architects Daughter;fontSource=https%3A%2F%2Ffonts.googleapis.com%2Fcss%3Ffamily%3DArchitects%2BDaughter;aspect=fixed;container=0;" vertex="1" parent="_Unlom2Pnuw2UOCp4IdP-16">
          <mxGeometry x="10" width="190" height="40" as="geometry" />
        </mxCell>
        <mxCell id="_Unlom2Pnuw2UOCp4IdP-23" value="" style="line;strokeWidth=2;direction=south;html=1;hachureGap=4;fontFamily=Architects Daughter;fontSource=https://fonts.googleapis.com/css?family=Architects+Daughter;strokeColor=#000000;aspect=fixed;" vertex="1" parent="_Unlom2Pnuw2UOCp4IdP-16">
          <mxGeometry x="105" y="-30" width="10" height="30" as="geometry" />
        </mxCell>
        <mxCell id="_Unlom2Pnuw2UOCp4IdP-18" value="" style="group;aspect=fixed;" vertex="1" connectable="0" parent="_Unlom2Pnuw2UOCp4IdP-39">
          <mxGeometry x="190" y="150" width="180" height="190" as="geometry" />
        </mxCell>
        <mxCell id="_Unlom2Pnuw2UOCp4IdP-7" value="" style="rhombus;whiteSpace=wrap;html=1;rounded=0;labelBackgroundColor=none;strokeColor=#0F140C;strokeWidth=2;align=center;verticalAlign=middle;fontFamily=Helvetica;fontSize=12;fontColor=default;fillColor=#d5e8d4;aspect=fixed;" vertex="1" parent="_Unlom2Pnuw2UOCp4IdP-18">
          <mxGeometry width="180" height="190" as="geometry" />
        </mxCell>
        <mxCell id="_Unlom2Pnuw2UOCp4IdP-17" value="&lt;b&gt;&lt;font color=&quot;#000000&quot; style=&quot;font-size: 14px;&quot; face=&quot;Comic Sans MS&quot;&gt;num1 &amp;lt;= num2&lt;/font&gt;&lt;/b&gt;&lt;div&gt;&lt;b&gt;&lt;font color=&quot;#000000&quot; style=&quot;font-size: 14px;&quot; face=&quot;Comic Sans MS&quot;&gt;&amp;amp;&amp;amp;&lt;/font&gt;&lt;/b&gt;&lt;/div&gt;&lt;div&gt;&lt;b&gt;&lt;font color=&quot;#000000&quot; style=&quot;font-size: 14px;&quot; face=&quot;Comic Sans MS&quot;&gt;num2 &amp;lt;= num3&lt;/font&gt;&lt;/b&gt;&lt;/div&gt;&lt;div&gt;&lt;b&gt;&lt;font color=&quot;#000000&quot; style=&quot;font-size: 14px;&quot; face=&quot;Comic Sans MS&quot;&gt;&amp;amp;&amp;amp;&lt;/font&gt;&lt;/b&gt;&lt;/div&gt;&lt;div&gt;&lt;b&gt;&lt;font color=&quot;#000000&quot; style=&quot;font-size: 14px;&quot; face=&quot;Comic Sans MS&quot;&gt;num3 &amp;lt;= num4&lt;/font&gt;&lt;/b&gt;&lt;/div&gt;" style="text;strokeColor=none;align=center;fillColor=none;html=1;verticalAlign=middle;whiteSpace=wrap;rounded=0;fontFamily=Architects Daughter;fontSource=https%3A%2F%2Ffonts.googleapis.com%2Fcss%3Ffamily%3DArchitects%2BDaughter;aspect=fixed;" vertex="1" parent="_Unlom2Pnuw2UOCp4IdP-18">
          <mxGeometry x="35" y="40" width="110" height="110" as="geometry" />
        </mxCell>
        <mxCell id="_Unlom2Pnuw2UOCp4IdP-21" value="" style="group;aspect=fixed;" vertex="1" connectable="0" parent="_Unlom2Pnuw2UOCp4IdP-39">
          <mxGeometry y="310" width="190" height="40" as="geometry" />
        </mxCell>
        <mxCell id="_Unlom2Pnuw2UOCp4IdP-6" value="" style="shape=trapezoid;perimeter=trapezoidPerimeter;whiteSpace=wrap;html=1;fixedSize=1;rounded=0;labelBackgroundColor=none;strokeColor=#0F140C;strokeWidth=2;align=center;verticalAlign=middle;fontFamily=Helvetica;fontSize=12;fontColor=default;fillColor=#d5e8d4;aspect=fixed;" vertex="1" parent="_Unlom2Pnuw2UOCp4IdP-21">
          <mxGeometry width="190" height="40" as="geometry" />
        </mxCell>
        <mxCell id="_Unlom2Pnuw2UOCp4IdP-19" value="&lt;b&gt;&lt;font color=&quot;#000000&quot; style=&quot;font-size: 15px;&quot; face=&quot;Comic Sans MS&quot;&gt;conjunto_ordenado&lt;/font&gt;&lt;/b&gt;" style="text;strokeColor=none;align=center;fillColor=none;html=1;verticalAlign=middle;whiteSpace=wrap;rounded=0;fontFamily=Architects Daughter;fontSource=https%3A%2F%2Ffonts.googleapis.com%2Fcss%3Ffamily%3DArchitects%2BDaughter;aspect=fixed;" vertex="1" parent="_Unlom2Pnuw2UOCp4IdP-21">
          <mxGeometry x="20" width="150" height="40" as="geometry" />
        </mxCell>
        <mxCell id="_Unlom2Pnuw2UOCp4IdP-22" value="" style="group;aspect=fixed;" vertex="1" connectable="0" parent="_Unlom2Pnuw2UOCp4IdP-39">
          <mxGeometry x="380" y="310" width="190" height="40" as="geometry" />
        </mxCell>
        <mxCell id="_Unlom2Pnuw2UOCp4IdP-5" value="" style="shape=trapezoid;perimeter=trapezoidPerimeter;whiteSpace=wrap;html=1;fixedSize=1;rounded=0;labelBackgroundColor=none;strokeColor=#0F140C;strokeWidth=2;align=center;verticalAlign=middle;fontFamily=Helvetica;fontSize=12;fontColor=default;fillColor=#d5e8d4;aspect=fixed;" vertex="1" parent="_Unlom2Pnuw2UOCp4IdP-22">
          <mxGeometry width="190" height="40" as="geometry" />
        </mxCell>
        <mxCell id="_Unlom2Pnuw2UOCp4IdP-20" value="&lt;b&gt;&lt;font color=&quot;#000000&quot; style=&quot;font-size: 15px;&quot; face=&quot;Comic Sans MS&quot;&gt;conjunto_desordenado&lt;/font&gt;&lt;/b&gt;" style="text;strokeColor=none;align=center;fillColor=none;html=1;verticalAlign=middle;whiteSpace=wrap;rounded=0;fontFamily=Architects Daughter;fontSource=https://fonts.googleapis.com/css?family=Architects+Daughter;aspect=fixed;" vertex="1" parent="_Unlom2Pnuw2UOCp4IdP-22">
          <mxGeometry x="10" width="170" height="40" as="geometry" />
        </mxCell>
        <mxCell id="_Unlom2Pnuw2UOCp4IdP-24" value="" style="line;strokeWidth=2;direction=south;html=1;hachureGap=4;fontFamily=Architects Daughter;fontSource=https://fonts.googleapis.com/css?family=Architects+Daughter;strokeColor=#000000;aspect=fixed;" vertex="1" parent="_Unlom2Pnuw2UOCp4IdP-39">
          <mxGeometry x="87" y="350" width="10" height="50" as="geometry" />
        </mxCell>
        <mxCell id="_Unlom2Pnuw2UOCp4IdP-25" value="" style="line;strokeWidth=2;direction=south;html=1;hachureGap=4;fontFamily=Architects Daughter;fontSource=https://fonts.googleapis.com/css?family=Architects+Daughter;strokeColor=#000000;aspect=fixed;" vertex="1" parent="_Unlom2Pnuw2UOCp4IdP-39">
          <mxGeometry x="87" y="244" width="10" height="66" as="geometry" />
        </mxCell>
        <mxCell id="_Unlom2Pnuw2UOCp4IdP-26" value="" style="line;strokeWidth=2;direction=south;html=1;hachureGap=4;fontFamily=Architects Daughter;fontSource=https://fonts.googleapis.com/css?family=Architects+Daughter;strokeColor=#000000;aspect=fixed;" vertex="1" parent="_Unlom2Pnuw2UOCp4IdP-39">
          <mxGeometry x="275" y="110" width="10" height="40" as="geometry" />
        </mxCell>
        <mxCell id="_Unlom2Pnuw2UOCp4IdP-27" value="" style="line;strokeWidth=2;direction=south;html=1;hachureGap=4;fontFamily=Architects Daughter;fontSource=https://fonts.googleapis.com/css?family=Architects+Daughter;strokeColor=#000000;aspect=fixed;" vertex="1" parent="_Unlom2Pnuw2UOCp4IdP-39">
          <mxGeometry x="470" y="350" width="10" height="50" as="geometry" />
        </mxCell>
        <mxCell id="_Unlom2Pnuw2UOCp4IdP-29" value="" style="line;strokeWidth=2;html=1;perimeter=backbonePerimeter;points=[];outlineConnect=0;hachureGap=4;fontFamily=Architects Daughter;fontSource=https://fonts.googleapis.com/css?family=Architects+Daughter;strokeColor=#000000;aspect=fixed;" vertex="1" parent="_Unlom2Pnuw2UOCp4IdP-39">
          <mxGeometry x="90" y="394" width="380" height="10" as="geometry" />
        </mxCell>
        <mxCell id="_Unlom2Pnuw2UOCp4IdP-32" value="" style="line;strokeWidth=2;html=1;perimeter=backbonePerimeter;points=[];outlineConnect=0;hachureGap=4;fontFamily=Architects Daughter;fontSource=https://fonts.googleapis.com/css?family=Architects+Daughter;strokeColor=#000000;aspect=fixed;" vertex="1" parent="_Unlom2Pnuw2UOCp4IdP-39">
          <mxGeometry x="370" y="240" width="110" height="10" as="geometry" />
        </mxCell>
        <mxCell id="_Unlom2Pnuw2UOCp4IdP-33" value="" style="line;strokeWidth=2;html=1;perimeter=backbonePerimeter;points=[];outlineConnect=0;hachureGap=4;fontFamily=Architects Daughter;fontSource=https://fonts.googleapis.com/css?family=Architects+Daughter;strokeColor=#000000;aspect=fixed;" vertex="1" parent="_Unlom2Pnuw2UOCp4IdP-39">
          <mxGeometry x="90" y="240" width="100" height="10" as="geometry" />
        </mxCell>
        <mxCell id="_Unlom2Pnuw2UOCp4IdP-37" value="" style="line;strokeWidth=2;direction=south;html=1;hachureGap=4;fontFamily=Architects Daughter;fontSource=https://fonts.googleapis.com/css?family=Architects+Daughter;strokeColor=#000000;aspect=fixed;" vertex="1" parent="_Unlom2Pnuw2UOCp4IdP-39">
          <mxGeometry x="472" y="244" width="10" height="66" as="geometry" />
        </mxCell>
        <mxCell id="_Unlom2Pnuw2UOCp4IdP-38" value="" style="line;strokeWidth=2;direction=south;html=1;hachureGap=4;fontFamily=Architects Daughter;fontSource=https://fonts.googleapis.com/css?family=Architects+Daughter;strokeColor=#000000;aspect=fixed;" vertex="1" parent="_Unlom2Pnuw2UOCp4IdP-39">
          <mxGeometry x="275" y="400" width="10" height="50" as="geometry" />
        </mxCell>
      </root>
    </mxGraphModel>
  </diagram>
</mxfile>
